<svg xmlns="http://www.w3.org/2000/svg" enable-background="new 0 0 28 28" viewBox="0 0 28 28" id="backward"><switch><g><linearGradient id="a" x1="2" x2="25.94" y1="14" y2="14" gradientTransform="matrix(1 0 0 -1 0 28)" gradientUnits="userSpaceOnUse"><stop offset="0" stop-color="#fff33b"></stop><stop offset=".04" stop-color="#fee72e"></stop><stop offset=".117" stop-color="#fed51b"></stop><stop offset=".196" stop-color="#fdca10"></stop><stop offset=".281" stop-color="#fdc70c"></stop><stop offset=".668" stop-color="#f3903f"></stop><stop offset=".888" stop-color="#ed683c"></stop><stop offset="1" stop-color="#e93e3a"></stop></linearGradient><path fill="url(#a)" d="M2,8C2,8,2,8,2,8c0-0.2,0-0.3,0.1-0.4l0,0c0-0.1,0.1-0.2,0.2-0.3l2-2c0,0,0,0,0,0c0.1-0.1,0.2-0.1,0.3-0.2
			C4.7,5,4.8,5,4.9,5c0.1,0,0.3,0,0.4,0.1c0,0,0,0,0,0h0c0.1,0,0.2,0.1,0.3,0.2c0,0,0,0,0,0c0,0,0,0,0,0.1c0.1,0.1,0.1,0.1,0.2,0.2
			c0,0,0,0.1,0,0.1C6,5.8,6,5.9,6,6v1h12c4.4,0,8,3.6,8,8s-3.6,8-8,8s-8-3.6-8-8c0-2.3,1-4.5,2.7-6H6v1c0,0.1,0,0.2-0.1,0.3
			c0,0,0,0.1,0,0.1c0,0.1-0.1,0.2-0.2,0.2c0,0,0,0,0,0c0,0,0,0,0,0c-0.1,0.1-0.2,0.2-0.3,0.2l0,0C5.3,10.9,5.2,11,5,11c0,0,0,0,0,0
			h0h0c-0.3,0-0.5-0.1-0.7-0.3l-2-2C2.2,8.6,2.1,8.5,2.1,8.4v0C2,8.2,2,8.1,2,8z"></path></g></switch></svg>