<svg xmlns="http://www.w3.org/2000/svg" data-name="Layer 1" viewBox="0 0 32 32" id="popcorn"><path fill="#feea9d" d="M23 11.5a2.5 2.5 0 0 0 0-5 2.49 2.49 0 0 0-2-4 2.35 2.35 0 0 0-.54.06 2.49 2.49 0 0 0-4.46-1A2.5 2.5 0 0 0 11.5 3 2.49 2.49 0 0 0 8 6.5a2.5 2.5 0 0 0 0 5Z"></path><path fill="none" stroke="#fee27d" stroke-linecap="round" stroke-linejoin="round" d="M22.45 12.08A3.18 3.18 0 0 0 25.5 9 3 3 0 0 0 23 6.5h0a2.49 2.49 0 0 0-2-4 2.35 2.35 0 0 0-.54.06 2.49 2.49 0 0 0-4.46-1A2.5 2.5 0 0 0 11.5 3h0A2.49 2.49 0 0 0 8 6.5h0A2.87 2.87 0 0 0 5.5 9 3 3 0 0 0 8 12"></path><path fill="#ed4769" d="m24.4 12.5-1.9 19h-14L6.61 12.6a1 1 0 0 1 1-1.1H23.5a1 1 0 0 1 .9 1Z"></path><path fill="#eb304a" d="m24.4 12.5-1.9 19h-1l2-20a1 1 0 0 1 .9 1Z"></path><path fill="#fee27d" d="M19.5 31.5h-8l-2-20h12l-2 20z"></path><path fill="#ed4769" d="M16.5 31.5h-2l-1-20h4l-1 20z"></path><ellipse cx="15.5" cy="21" fill="#fff" rx="8" ry="5.5"></ellipse><path fill="#e1e1e3" d="M15.5 15.5H15c4.18.18 7.5 2.56 7.5 5.48s-3.32 5.3-7.5 5.48h.5c4.42 0 8-2.46 8-5.5s-3.58-5.46-8-5.46Z"></path><path fill="#fee27d" d="M15.93 9.5a.5.5 0 0 1-.5-.5c0-.37-.33-.72-.84-.9a.48.48 0 0 1-.27-.73.68.68 0 0 0 .11-.37c0-.54-.68-1-1.5-1s-1.5.46-1.5 1a.67.67 0 0 0 .08.29.5.5 0 0 1 0 .5A.54.54 0 0 1 11 8v-.44V8c-.81 0-1.5.46-1.5 1a.5.5 0 0 1-.5.5.5.5 0 0 1-.5-.5 2.18 2.18 0 0 1 2-2A2.3 2.3 0 0 1 13 5a2.3 2.3 0 0 1 2.5 2 1.5 1.5 0 0 1 0 .37 1.9 1.9 0 0 1 1 1.63.5.5 0 0 1-.57.5Z"></path><path fill="#fee27d" d="M21 9.72a.43.43 0 0 1-.19 0 .49.49 0 0 1-.29-.72 1.09 1.09 0 0 0-.44-1.15.51.51 0 0 1 0-.78.68.68 0 0 0 .26-.3c.2-.49-.25-1.18-1-1.5a1.8 1.8 0 0 0-1.32-.07.82.82 0 0 0-.44.41.79.79 0 0 0-.06.29.5.5 0 0 1-.19.43.49.49 0 0 1-.47.07h-.12a1.49 1.49 0 0 0-1.71.19.51.51 0 0 1-.7.1.5.5 0 0 1-.09-.7 2.25 2.25 0 0 1 2.4-.68 1.74 1.74 0 0 1 1-.94 2.77 2.77 0 0 1 2.09.07 2.3 2.3 0 0 1 1.57 2.74 1.77 1.77 0 0 1-.19.33 1.91 1.91 0 0 1 .32 1.91.49.49 0 0 1-.43.3Z"></path><path fill="#ed4769" d="M12 19h7v4h-7z"></path><path fill="#eb304a" d="M18 19h1v4h-1z"></path><path d="M23.78 6.11A2.82 2.82 0 0 0 24 5a3 3 0 0 0-3.17-3A3 3 0 0 0 16 .77a3 3 0 0 0-4.89 1.45A2.82 2.82 0 0 0 10 2a3 3 0 0 0-3 3 2.77 2.77 0 0 0 .22 1.1A3 3 0 0 0 5 9a3 3 0 0 0 1 2.19L8.05 32H23l2-20.81a3 3 0 0 0-1.25-5.08ZM7.05 12h2l.47 4.74a6.51 6.51 0 0 0-1.81 1.86ZM9 31l-.68-6.87a7.33 7.33 0 0 0 2.16 1.67L11 31Zm3 0-.47-4.72a10.39 10.39 0 0 0 2.29.59L14 31Zm4 0h-1l-.21-4h1.46Zm3 0h-2l.2-4.13a10.39 10.39 0 0 0 2.29-.59Zm3 0h-2l.52-5.2a7.33 7.33 0 0 0 2.16-1.67Zm-6.5-5C11.36 26 8 23.76 8 21s3.36-5 7.5-5 7.5 2.24 7.5 5-3.36 5-7.5 5Zm-5.45-14h3l.17 3.23a10.27 10.27 0 0 0-2.72.94Zm4 0H17l-.15 3.08a10.93 10.93 0 0 0-2.64 0Zm3.78 3.23L18 12h3l-.42 4.17a10.27 10.27 0 0 0-2.77-.94Zm5.48 3.37a6.51 6.51 0 0 0-1.81-1.86L22 12h2ZM23 11H8a2 2 0 1 1 0-4 .5.5 0 0 0 .45-.28.49.49 0 0 0-.05-.52A2 2 0 0 1 8 5a2 2 0 0 1 2-2 2 2 0 0 1 1.2.41.49.49 0 0 0 .52 0A.5.5 0 0 0 12 3a2 2 0 0 1 3.6-1.19.51.51 0 0 0 .8 0A2 2 0 0 1 18 1a2 2 0 0 1 2 1.65.51.51 0 0 0 .22.33.47.47 0 0 0 .38.07A2.37 2.37 0 0 1 21 3a2 2 0 0 1 2 2 2 2 0 0 1-.41 1.2.47.47 0 0 0 0 .52A.5.5 0 0 0 23 7a2 2 0 0 1 0 4Zm-1.7-3.82a2.3 2.3 0 0 0-1.53-2.81 2.77 2.77 0 0 0-2.09-.07 1.74 1.74 0 0 0-1 .94 2.44 2.44 0 0 0-2 .3A2.82 2.82 0 0 0 12.93 5a2.3 2.3 0 0 0-2.5 2 2.18 2.18 0 0 0-2 2 .5.5 0 0 0 .5.5.5.5 0 0 0 .5-.5c0-.54.69-1 1.5-1v-.44L11 8a.54.54 0 0 0 .45-.22.5.5 0 0 0 0-.5.67.67 0 0 1-.02-.28c0-.54.69-1 1.5-1s1.5.46 1.5 1a.68.68 0 0 1-.11.37.48.48 0 0 0 .27.73c.51.18.84.53.84.9a.5.5 0 0 0 .5.5.5.5 0 0 0 .5-.5 1.9 1.9 0 0 0-1-1.63 1.5 1.5 0 0 0 0-.37 1.64 1.64 0 0 0-.13-.62 1.69 1.69 0 0 1 1.48 0h.12a.49.49 0 0 0 .47-.07.5.5 0 0 0 .19-.43.79.79 0 0 1 .06-.29.82.82 0 0 1 .44-.41 1.8 1.8 0 0 1 1.32.07c.75.32 1.2 1 1 1.5a.68.68 0 0 1-.26.3.51.51 0 0 0 0 .78 1.09 1.09 0 0 1 .4 1.17.49.49 0 0 0 .26.66.43.43 0 0 0 .19 0 .49.49 0 0 0 .46-.3 1.91 1.91 0 0 0-.32-1.91 1.77 1.77 0 0 0 .19-.27ZM11.5 23.5h8v-5h-8Zm1-4h6v3h-6Z"></path></svg>